<?xml version="1.0" standalone="no"?>
<!DOCTYPE svg PUBLIC "-//W3C//DTD SVG 20010904//EN"
 "http://www.w3.org/TR/2001/REC-SVG-20010904/DTD/svg10.dtd">
<svg version="1.0" xmlns="http://www.w3.org/2000/svg"
 width="512.000000pt" height="512.000000pt" viewBox="0 0 512.000000 512.000000"
 preserveAspectRatio="xMidYMid meet">
<metadata>
Created by potrace 1.14, written by Peter Selinger 2001-2017
</metadata>
<g transform="translate(0.000000,512.000000) scale(0.100000,-0.100000)"
fill="#000000" stroke="none">
<path d="M2051 4569 c-35 -33 -42 -62 -26 -121 11 -45 11 -57 -2 -90 -10 -25
-23 -40 -39 -44 -14 -4 -27 -16 -30 -29 -6 -25 20 -95 35 -95 6 0 11 -7 11
-15 0 -18 1 -18 34 -5 16 6 27 6 31 0 4 -6 13 -6 23 0 9 5 29 11 45 15 44 9
31 24 -18 21 -62 -5 -57 10 6 16 61 6 109 -3 181 -36 29 -13 76 -27 103 -31
41 -5 58 -15 96 -52 37 -35 51 -44 68 -38 24 7 54 -11 44 -28 -3 -6 -1 -7 5
-3 6 3 16 -2 22 -13 13 -26 3 -32 -71 -38 -47 -5 -59 -9 -55 -20 4 -8 6 -16 6
-19 0 -2 8 -1 18 2 13 5 14 4 3 -4 -7 -5 -10 -15 -6 -21 5 -9 37 -10 115 -5
102 6 108 6 119 -14 6 -11 11 -24 11 -29 0 -4 -48 -8 -106 -8 -103 0 -107 -1
-110 -22 -4 -21 -1 -22 64 -20 65 2 70 0 132 -43 36 -25 71 -46 78 -47 8 -2
12 12 12 48 0 43 5 55 30 81 17 16 30 34 30 39 0 13 -44 11 -57 -2 -12 -12
-41 -1 -63 26 -11 13 -8 23 14 66 14 28 26 55 26 60 0 15 -47 10 -60 -6 -28
-33 -110 -3 -110 40 0 23 24 67 49 89 27 25 26 32 -3 40 -33 8 -51 0 -64 -29
-13 -29 -72 -48 -108 -35 -54 21 -53 99 2 135 40 26 31 45 -21 45 -41 0 -45
-2 -45 -24 0 -31 -19 -46 -65 -49 -34 -2 -41 2 -62 32 -29 43 -29 67 2 113 34
50 32 62 -6 54 -17 -3 -38 -6 -45 -6 -9 0 -14 -11 -14 -31 0 -22 -9 -40 -31
-60 -36 -33 -63 -36 -114 -12 -32 15 -35 21 -35 57 0 23 -2 58 -6 79 -5 31 -2
45 17 70 12 18 16 26 7 19 -17 -13 -52 -6 -42 9 9 15 -1 10 -25 -12z m259
-273 c-1 -21 -1 -21 -15 -2 -19 25 -19 37 0 30 8 -4 15 -16 15 -28z m-40 9 c7
-9 8 -15 2 -15 -5 0 -12 7 -16 15 -3 8 -4 15 -2 15 2 0 9 -7 16 -15z m-220
-45 c0 -5 -8 -10 -17 -10 -15 0 -16 2 -3 10 19 12 20 12 20 0z m240 -5 c-7 -9
-15 -13 -17 -11 -7 7 7 26 19 26 6 0 6 -6 -2 -15z m-202 -14 c3 -8 -1 -12 -9
-9 -7 2 -15 10 -17 17 -3 8 1 12 9 9 7 -2 15 -10 17 -17z m717 -409 c-3 -3
-11 0 -18 7 -9 10 -8 11 6 5 10 -3 15 -9 12 -12z m-25 -32 c0 -5 -4 -10 -9
-10 -6 0 -13 5 -16 10 -3 6 1 10 9 10 9 0 16 -4 16 -10z m47 -42 c-2 -13 -4
-5 -4 17 -1 22 1 32 4 23 2 -10 2 -28 0 -40z"/>
<path d="M2193 4204 c7 -8 -17 -34 -32 -34 -17 0 -24 -22 -10 -31 11 -7 9 -9
-8 -9 -12 0 -24 6 -26 13 -3 7 -6 5 -6 -6 -1 -10 9 -22 22 -27 17 -7 18 -9 5
-9 -18 -1 -27 -41 -9 -41 5 0 11 -6 14 -12 2 -7 3 -5 2 5 -2 9 3 17 11 17 8 0
14 -7 14 -16 0 -8 4 -12 10 -9 5 3 18 1 27 -4 17 -10 17 -10 0 -11 -9 0 -26
-5 -36 -12 -15 -9 -24 -7 -49 13 -34 27 -51 55 -28 46 8 -3 16 2 19 14 7 26
-22 25 -74 -2 -23 -11 -47 -18 -55 -15 -9 4 -12 2 -8 -5 4 -7 0 -9 -14 -5 -16
6 -24 0 -36 -26 -24 -49 -73 -101 -87 -92 -7 4 -9 3 -5 -4 3 -6 2 -13 -4 -17
-15 -9 -2 -25 14 -19 8 3 17 1 21 -5 3 -6 0 -11 -7 -11 -7 0 -1 -8 12 -17 14
-9 31 -23 38 -30 7 -7 21 -17 30 -22 32 -18 2 -24 -52 -11 -61 14 -155 8 -167
-12 -6 -9 -11 -9 -22 0 -7 7 -17 9 -20 6 -12 -12 -135 -16 -156 -4 -14 7 -21
7 -21 0 0 -5 7 -10 15 -10 15 0 20 -12 9 -23 -7 -7 -105 21 -119 34 -6 7 -5
13 4 18 20 13 5 41 -21 41 -13 0 -32 -7 -42 -15 -11 -8 -14 -15 -7 -15 7 0 9
-5 5 -11 -3 -6 -15 -9 -25 -6 -39 10 -52 -59 -19 -108 14 -22 18 -39 13 -71
-5 -37 -3 -44 21 -59 31 -20 93 -17 166 10 25 9 58 18 74 20 35 5 144 -18 186
-40 17 -9 85 -27 153 -41 185 -37 175 -37 204 -14 30 24 53 26 53 5 0 -8 10
-19 21 -26 13 -7 19 -7 15 -1 -13 22 15 22 45 2 16 -12 33 -19 36 -16 4 3 0 6
-7 6 -7 0 -11 2 -8 5 7 8 39 -6 34 -14 -3 -4 18 -8 46 -9 28 -1 57 -7 63 -12
9 -8 14 -6 19 5 3 10 11 13 18 9 7 -4 10 -4 6 1 -4 4 -3 16 2 26 12 21 3 49
-16 49 -8 0 -14 6 -14 13 0 17 -34 49 -43 41 -3 -3 -15 -3 -27 1 l-22 7 23 12
c12 6 23 21 24 34 1 18 -2 21 -19 16 -18 -6 -19 -5 -8 9 8 9 19 14 27 11 7 -3
16 -1 20 5 4 7 0 8 -11 4 -14 -5 -16 -3 -11 11 4 10 7 20 7 22 0 2 7 4 15 4 8
0 15 3 15 8 0 4 13 16 27 26 23 17 26 17 20 3 -3 -9 -2 -17 3 -17 16 0 11 37
-5 44 -8 3 -12 12 -9 21 4 9 1 15 -9 15 -24 0 -62 35 -48 44 7 4 10 2 9 -5 -2
-6 3 -14 11 -16 22 -9 7 21 -17 32 -12 5 -22 16 -22 23 0 7 5 10 10 7 6 -3 10
0 10 8 0 10 -7 13 -21 10 -12 -4 -25 0 -29 8 -5 7 -12 10 -16 6 -4 -3 -1 -13
6 -22 8 -10 9 -15 1 -15 -6 0 -10 -10 -8 -21 1 -12 -3 -24 -10 -26 -9 -3 -10
4 -3 27 8 26 5 32 -15 46 -14 9 -30 12 -37 8 -9 -6 -9 -3 1 9 8 10 19 16 25
14 6 -2 21 0 34 4 15 6 22 5 22 -4 0 -8 4 -7 10 3 14 21 12 30 -6 30 -11 0
-14 7 -10 30 4 27 2 29 -15 20 -10 -6 -19 -17 -19 -25 0 -16 -55 -22 -64 -6
-3 4 5 6 18 4 16 -3 27 2 39 20 l16 25 -41 -2 c-32 -3 -39 -1 -27 8 18 14 24
52 9 61 -6 4 -10 3 -9 -2 4 -22 -3 -33 -21 -33 -11 0 -20 6 -20 13 0 9 -3 8
-9 -2 -12 -19 -21 1 -15 34 6 36 13 47 25 40 5 -3 6 1 3 9 -3 9 -11 16 -17 16
-6 0 -8 -3 -4 -6z m-92 -171 c16 -10 31 -25 34 -34 3 -10 13 -23 22 -31 15
-12 15 -11 5 9 -9 17 -9 22 3 27 8 3 15 1 15 -5 0 -6 7 -3 16 5 20 20 28 20
45 -1 13 -16 12 -17 -4 -4 -16 13 -17 12 -8 -11 9 -23 7 -25 -15 -22 -19 2
-24 -2 -24 -21 0 -19 -4 -23 -22 -20 -12 3 -26 -1 -30 -8 -5 -8 -8 -4 -8 11 0
13 -4 21 -9 18 -5 -4 -7 2 -4 13 6 22 -39 61 -71 61 -26 0 -85 -35 -92 -55 -7
-16 -24 -21 -24 -7 0 25 90 92 123 92 11 0 32 -8 48 -17z m-31 -43 c-13 -9
-13 -10 0 -11 8 -1 18 -1 21 -1 3 1 6 -5 6 -13 0 -11 -5 -10 -24 2 -27 18 -30
33 -5 33 14 0 15 -2 2 -10z m-53 -39 c-8 -9 -12 -10 -15 -2 -2 6 -8 9 -13 5
-5 -3 -9 -1 -9 4 0 6 11 9 24 8 19 -1 22 -4 13 -15z m-113 -10 c4 -5 -3 -7
-14 -4 -23 6 -26 13 -6 13 8 0 17 -4 20 -9z m66 -43 c0 -6 8 -21 17 -32 10
-12 3 -8 -15 8 -37 34 -38 36 -17 36 8 0 15 -5 15 -12z m220 2 c0 -5 -7 -7
-15 -4 -8 4 -15 8 -15 10 0 2 7 4 15 4 8 0 15 -4 15 -10z m17 -59 c0 -38 -3
-48 -13 -44 -17 6 -18 25 -2 41 9 9 8 12 -5 12 -22 0 -22 9 1 26 9 7 18 14 18
14 1 0 1 -22 1 -49z m38 -11 c7 0 16 -7 19 -16 3 -8 2 -13 -3 -10 -5 3 -11 -1
-15 -9 -10 -27 -21 -16 -22 23 0 20 1 31 3 25 3 -7 11 -13 18 -13z m-871 -3
c14 -14 10 -37 -7 -37 -7 0 -12 11 -12 25 0 29 2 30 19 12z m941 -85 c-7 -8
-25 9 -20 19 4 5 1 9 -4 9 -6 0 -11 8 -11 18 0 12 6 9 20 -13 10 -16 17 -31
15 -33z m-343 39 c15 8 20 5 28 -15 6 -17 14 -24 25 -20 8 3 12 10 9 15 -3 5
2 9 11 9 9 0 13 -4 10 -10 -6 -10 6 -14 36 -11 9 1 22 -6 30 -16 8 -9 9 -14 3
-10 -7 4 -9 -2 -6 -19 3 -19 7 -22 13 -12 7 11 9 11 9 0 0 -8 -16 -30 -35 -49
-30 -30 -37 -33 -56 -23 -16 9 -18 14 -9 20 20 12 -10 63 -48 80 -24 10 -32
19 -28 33 3 14 1 16 -8 8 -15 -12 -26 -5 -26 18 0 11 3 12 12 3 7 -7 17 -8 30
-1z m303 -39 c5 -29 3 -32 -20 -32 -14 0 -25 5 -25 10 0 6 5 10 11 10 6 0 8 7
5 17 -4 9 -1 20 6 24 16 10 16 10 23 -29z m-50 18 c3 -5 1 -10 -4 -10 -6 0
-11 5 -11 10 0 6 2 10 4 10 3 0 8 -4 11 -10z m-431 -6 c20 -8 21 -24 2 -24 -7
0 -20 -7 -27 -17 -13 -15 -10 -16 36 -10 28 4 61 10 75 13 22 7 24 6 11 -9 -7
-9 -24 -17 -38 -17 -13 0 -34 -5 -45 -11 -16 -9 -26 -7 -49 10 -15 12 -35 21
-44 21 -9 0 -24 4 -33 9 -9 5 -38 12 -64 16 -40 6 -48 5 -48 -9 0 -9 -4 -16
-10 -16 -5 0 -10 5 -10 10 0 6 -7 10 -15 10 -8 0 -15 5 -15 10 0 7 40 10 114
8 63 -1 118 1 122 5 9 9 17 9 38 1z m-469 -14 c-3 -5 -13 -10 -21 -10 -8 0
-14 5 -14 10 0 6 9 10 21 10 11 0 17 -4 14 -10z m1015 -31 c0 -5 -4 -8 -9 -5
-5 4 -12 0 -14 -6 -3 -8 -6 -6 -6 5 -1 9 6 17 14 17 8 0 15 -5 15 -11z m-923
-16 c11 -4 14 -3 9 5 -10 16 36 16 52 0 9 -9 8 -16 -4 -29 -14 -15 -13 -17 11
-23 16 -4 33 -2 41 5 8 7 14 7 14 1 0 -24 -75 -30 -84 -7 -3 8 -10 15 -16 15
-6 0 -8 -6 -4 -12 5 -9 2 -9 -9 1 -12 10 -17 10 -17 2 0 -8 -6 -7 -16 3 -8 9
-23 16 -32 17 -11 0 -12 2 -4 6 6 2 12 12 12 20 0 9 6 13 15 9 8 -3 22 -9 32
-13z m757 -18 c3 -8 1 -15 -4 -15 -6 0 -10 7 -10 15 0 8 2 15 4 15 2 0 6 -7
10 -15z m-284 -48 c28 -17 31 -22 17 -25 -25 -5 -50 6 -42 18 3 5 -2 10 -12
10 -10 0 -26 7 -35 14 -47 36 8 23 72 -17z"/>
<path d="M2280 4166 c0 -2 17 -15 38 -27 20 -13 61 -46 90 -74 30 -27 62 -51
73 -51 10 -1 16 3 13 8 -3 5 -9 7 -12 4 -8 -9 -33 15 -26 25 3 5 -6 13 -19 18
-31 12 -38 23 -27 40 6 11 12 11 31 -3 29 -20 40 -20 33 -1 -4 8 -15 15 -25
15 -10 0 -19 5 -19 10 0 7 -7 7 -20 0 -12 -6 -18 -16 -14 -23 4 -7 3 -8 -2 -4
-5 5 -9 14 -9 20 0 7 -7 12 -15 13 -35 2 -41 5 -35 14 3 5 0 7 -8 4 -8 -3 -18
-1 -22 5 -6 11 -25 15 -25 7z"/>
<path d="M2491 4064 c0 -11 3 -14 6 -6 3 7 2 16 -1 19 -3 4 -6 -2 -5 -13z"/>
<path d="M1890 4062 c0 -5 -11 -7 -25 -4 -20 3 -24 1 -19 -12 5 -12 -7 -22
-47 -41 -30 -14 -60 -25 -66 -25 -7 0 -20 -11 -29 -25 -13 -19 -14 -28 -5 -39
9 -11 9 -15 -1 -19 -8 -4 -7 -6 5 -6 9 -1 17 6 17 14 0 8 7 15 15 15 8 0 15 5
15 10 0 6 3 9 8 9 24 -4 42 6 85 46 27 25 53 45 58 45 12 0 12 27 -1 35 -5 3
-10 2 -10 -3z"/>
<path d="M2545 4040 c-3 -6 1 -7 9 -4 18 7 21 14 7 14 -6 0 -13 -4 -16 -10z"/>
<path d="M2565 4000 c-3 -5 -1 -10 4 -10 6 0 11 5 11 10 0 6 -2 10 -4 10 -3 0
-8 -4 -11 -10z"/>
<path d="M1667 3953 c-4 -6 -16 -9 -27 -6 -14 4 -20 0 -20 -12 0 -14 3 -15 14
-6 9 8 15 8 18 2 2 -6 9 -7 17 -2 7 5 11 15 9 22 -3 9 -6 10 -11 2z"/>
<path d="M1590 3936 c0 -7 6 -19 14 -25 11 -9 12 -6 8 14 -5 26 -22 35 -22 11z"/>
<path d="M1533 3926 c-15 -27 -4 -55 28 -71 40 -21 42 -19 16 23 -13 20 -26
44 -29 52 -4 12 -6 11 -15 -4z"/>
<path d="M1786 3921 c-4 -5 -2 -12 3 -15 5 -4 12 -2 15 3 4 5 2 12 -3 15 -5 4
-12 2 -15 -3z"/>
<path d="M1698 3878 c-32 -17 -58 -35 -58 -41 0 -6 21 -7 58 -2 31 5 72 9 89
9 l33 0 -30 20 c-16 12 -28 27 -25 34 6 17 -3 15 -67 -20z"/>
<path d="M2500 3860 c0 -5 7 -10 16 -10 8 0 12 5 9 10 -3 6 -10 10 -16 10 -5
0 -9 -4 -9 -10z"/>
<path d="M3180 3854 l-25 -15 25 7 c28 7 35 12 29 18 -2 2 -15 -2 -29 -10z"/>
<path d="M1430 3825 c0 -7 12 -15 28 -18 38 -7 39 -2 3 16 -24 12 -31 13 -31
2z"/>
<path d="M3371 3808 c-1 -21 -17 -24 -24 -5 -3 6 -6 1 -6 -13 0 -14 3 -31 8
-39 12 -19 34 22 28 52 -3 15 -5 17 -6 5z"/>
<path d="M2901 3728 c-17 -35 -24 -54 -15 -43 22 29 56 96 51 102 -3 2 -19
-24 -36 -59z"/>
<path d="M2597 3774 c-3 -3 3 -16 14 -28 12 -11 32 -41 47 -66 14 -25 29 -47
32 -50 7 -5 40 -91 40 -103 0 -4 -4 -7 -10 -7 -5 0 -10 9 -10 20 0 23 -34 83
-43 74 -3 -3 -3 4 0 17 5 17 3 20 -7 14 -8 -5 -11 -4 -6 3 3 6 -2 15 -11 21
-10 5 -15 12 -11 16 8 8 -31 49 -49 51 -18 3 -17 -3 17 -58 35 -57 55 -135 46
-183 -4 -18 -2 -36 3 -40 6 -3 10 -18 10 -33 -1 -47 14 -192 19 -192 3 0 13 6
22 13 9 6 6 2 -6 -9 -26 -25 -33 -70 -16 -101 11 -21 7 -53 -7 -53 -4 0 -31
13 -61 28 -90 47 -168 60 -292 51 -18 -1 -28 -8 -30 -21 -3 -18 -4 -18 -31 4
-29 23 -151 58 -197 57 -20 -1 -19 -3 10 -10 19 -5 46 -12 59 -15 37 -8 132
-66 148 -91 13 -20 12 -22 -13 -35 -32 -15 -43 -38 -19 -38 10 0 15 -6 12 -13
-2 -6 2 -18 9 -25 12 -11 16 -8 24 13 6 15 10 35 10 45 0 10 4 30 10 45 7 17
7 24 0 20 -14 -9 -12 7 3 27 12 15 14 13 26 -13 7 -16 17 -27 22 -23 5 3 9 2
8 -3 -5 -30 2 -35 41 -30 31 4 40 2 40 -10 0 -9 6 -13 13 -10 8 3 20 1 28 -4
12 -7 12 -9 0 -9 -8 0 -11 -3 -8 -6 4 -4 14 -1 22 6 13 11 16 11 13 -1 -2 -9
5 -13 21 -11 17 1 22 -2 17 -13 -3 -8 -1 -15 4 -15 6 0 10 7 10 16 0 11 6 13
19 9 11 -3 23 0 27 6 4 7 3 9 -4 5 -6 -3 -13 -2 -17 3 -11 18 48 0 71 -22 31
-29 30 -41 -3 -65 l-27 -19 32 -39 c24 -28 28 -40 19 -47 -8 -6 -6 -7 5 -3 11
3 26 -3 38 -16 20 -22 18 -41 -4 -32 -7 3 -16 -2 -20 -11 -3 -9 -11 -13 -17
-10 -5 4 -17 -1 -24 -11 -8 -11 -15 -14 -15 -7 0 7 -7 10 -16 6 -22 -8 -2 -25
30 -25 14 0 30 -6 35 -12 11 -13 -46 -15 -67 -3 -20 13 -73 11 -82 -3 -4 -7
-13 -9 -20 -5 -18 11 -103 7 -136 -6 -16 -7 -35 -11 -42 -10 -7 1 -15 -5 -18
-14 -6 -14 -8 -14 -18 1 -11 14 -24 15 -94 9 -45 -4 -82 -11 -82 -17 0 -5 4
-7 10 -3 5 3 19 -4 31 -16 17 -17 19 -23 8 -30 -10 -6 -10 -9 -2 -9 7 0 20
-16 29 -35 9 -19 23 -35 30 -35 8 0 14 -7 14 -15 0 -19 33 -19 70 0 34 18 36
28 15 79 -14 33 -14 38 0 53 14 14 18 13 35 -7 12 -14 20 -18 20 -10 0 11 3
11 12 2 16 -16 38 -15 38 2 0 19 137 53 153 37 6 -6 15 -11 21 -11 5 0 1 7
-10 15 -19 14 -19 14 2 15 11 0 25 -5 32 -12 7 -7 12 -9 12 -4 0 4 7 0 17 -9
14 -14 14 -18 2 -26 -10 -6 -10 -9 -1 -9 6 0 12 -7 12 -15 0 -8 7 -15 16 -15
8 0 13 4 10 9 -4 5 2 7 12 5 9 -3 43 8 75 24 31 16 57 26 57 23 0 -8 -86 -73
-120 -91 -14 -7 -27 -16 -30 -19 -25 -30 -160 -65 -295 -76 -11 -1 -27 -4 -35
-8 -8 -3 -46 -11 -85 -16 -38 -6 -83 -15 -100 -20 l-30 -9 37 -1 c31 -1 38 -5
47 -31 6 -18 6 -30 0 -30 -18 0 -9 -32 11 -37 11 -3 17 -10 14 -15 -4 -7 0 -7
12 0 15 8 24 6 40 -9 19 -18 23 -18 50 -4 16 8 34 15 41 15 8 0 6 17 -8 57
-11 32 -18 65 -15 73 3 11 4 10 5 -4 1 -12 6 -16 16 -12 9 3 19 -3 25 -15 6
-11 15 -17 20 -14 5 3 11 1 15 -5 3 -5 13 -10 22 -10 13 0 13 3 2 16 -10 13
-10 17 2 25 18 11 36 11 44 -1 5 -8 16 -7 55 8 8 3 33 7 54 9 22 1 44 7 50 13
13 13 29 13 21 0 -3 -5 0 -10 7 -10 7 0 1 -8 -12 -17 -14 -9 -26 -17 -28 -18
-11 -8 15 -35 33 -35 24 0 59 26 51 39 -3 4 4 7 14 8 26 2 37 -45 14 -61 -28
-21 -196 -70 -309 -90 -159 -29 -295 -78 -295 -105 0 -5 10 -11 23 -15 22 -5
57 -55 57 -82 0 -8 4 -14 9 -14 6 0 10 -8 10 -17 0 -28 10 -86 16 -91 8 -9 5
40 -5 86 -6 24 -21 61 -35 82 -14 22 -25 42 -25 45 0 13 44 -5 87 -36 88 -63
89 -63 152 -32 31 15 58 28 60 30 2 1 -6 19 -18 39 -28 48 -21 77 12 46 12
-11 40 -23 62 -25 22 -2 48 -8 57 -12 10 -4 23 -5 30 -2 7 3 3 6 -10 6 -15 1
-22 6 -19 14 2 6 10 11 16 10 6 -2 11 2 11 7 0 6 -4 10 -10 10 -5 0 -10 5 -10
10 0 31 69 -5 83 -42 8 -24 9 -23 100 20 42 21 77 36 77 34 0 -2 -9 -17 -21
-33 -37 -52 -276 -145 -357 -138 -15 1 -44 -6 -64 -15 -21 -9 -48 -16 -62 -16
-16 0 -34 -13 -54 -38 -30 -37 -43 -67 -30 -67 3 0 15 -11 25 -25 19 -25 26
-40 58 -117 21 -49 58 -90 170 -188 44 -38 139 -129 211 -202 79 -81 138 -133
150 -133 11 0 15 3 8 8 -15 10 -13 42 3 42 7 0 13 5 13 11 0 5 -4 8 -8 5 -5
-3 -9 1 -9 9 0 13 4 13 25 -1 13 -9 27 -12 31 -7 3 5 15 8 26 7 11 0 35 4 52
10 30 10 27 11 -35 11 -40 0 -80 6 -95 14 -26 14 -26 14 -7 31 11 9 16 21 12
25 -4 5 -2 5 5 2 6 -4 18 0 26 8 9 8 19 15 23 15 15 0 74 45 74 57 0 26 -23
23 -79 -11 -58 -36 -113 -47 -127 -25 -4 8 0 9 15 4 13 -4 21 -2 21 5 0 6 4 9
9 6 14 -9 7 21 -10 41 -41 49 -43 54 -23 46 17 -6 17 -5 5 10 -19 24 1 21 21
-2 9 -11 13 -23 10 -28 -4 -4 8 5 25 21 18 16 36 26 40 22 5 -4 0 -14 -10 -21
-18 -13 -18 -14 1 -24 21 -11 41 -1 61 34 11 18 11 18 5 -5 -6 -23 -6 -24 12
-10 18 14 18 14 0 -8 -11 -12 -15 -22 -9 -22 16 0 83 56 76 64 -3 3 1 6 10 6
9 0 17 -4 17 -9 0 -5 2 -16 5 -23 3 -8 -8 -32 -25 -53 -41 -51 -27 -61 16 -11
19 22 37 37 40 33 4 -3 -8 -18 -25 -32 -17 -15 -31 -32 -31 -38 0 -6 13 1 28
16 15 15 35 27 43 27 8 0 24 8 35 18 23 22 45 18 37 -6 -4 -14 -3 -14 5 -3 12
16 19 12 75 -38 32 -30 34 -53 7 -122 -12 -29 -19 -62 -17 -73 2 -15 14 0 39
55 l36 77 48 -9 c75 -14 112 -3 166 53 51 52 62 80 28 71 -12 -3 -41 10 -80
36 -57 39 -63 41 -94 30 -30 -11 -38 -9 -77 14 -25 16 -37 27 -26 27 9 0 17 5
17 11 0 5 5 7 10 4 6 -4 8 -12 4 -18 -3 -7 2 -3 10 7 9 11 16 15 16 9 0 -24
31 -22 42 2 8 18 15 22 27 16 20 -10 47 -6 80 11 22 12 18 13 -55 19 l-79 5
81 2 81 2 59 51 c76 66 71 60 79 88 l8 25 -33 -28 c-29 -24 -34 -25 -42 -12
-5 9 -13 14 -19 11 -5 -3 -6 1 -3 9 3 9 1 16 -5 16 -6 0 -10 3 -9 8 1 4 -4 28
-12 54 -13 42 -19 50 -61 68 -26 11 -57 20 -68 20 -18 0 -18 2 7 27 l27 27
-25 7 c-14 4 -22 8 -17 9 16 5 28 8 41 9 8 0 21 8 30 16 8 9 18 16 21 15 3 0
7 0 10 0 3 0 1 8 -4 19 -8 14 -20 18 -50 16 l-40 -2 29 27 c32 30 42 53 13 28
-10 -8 -31 -19 -48 -26 l-30 -12 25 18 c14 9 43 35 64 57 22 22 43 41 48 41 4
1 13 2 18 3 14 2 12 27 -5 60 -14 29 -66 58 -84 47 -5 -3 -11 -2 -13 3 -2 6
-18 6 -38 2 -25 -5 -35 -12 -34 -25 1 -9 -1 -15 -4 -12 -10 10 -31 -33 -58
-117 -10 -32 -24 -63 -31 -69 -9 -7 -8 0 2 26 9 20 13 42 9 48 -4 6 -3 8 4 4
7 -4 10 6 7 31 -4 32 -3 33 3 8 7 -28 8 -27 18 23 9 47 9 54 -9 70 -19 16 -19
16 -13 -8 6 -21 4 -20 -13 8 -11 17 -26 32 -31 32 -6 0 -9 -4 -6 -8 9 -15 -53
0 -65 15 -11 12 -8 13 17 7 16 -4 35 -7 44 -7 8 0 21 -4 28 -10 8 -6 12 -6 12
3 0 10 3 10 14 1 12 -10 13 -8 9 11 -9 32 -49 95 -65 100 -9 3 -10 9 -3 19 6
8 2 6 -7 -4 -10 -11 -15 -24 -11 -30 3 -5 1 -7 -5 -3 -9 5 -57 -49 -57 -66 0
-3 -4 -10 -9 -15 -5 -5 -6 -3 -2 5 10 17 -9 15 -23 -2 -10 -11 -8 -16 9 -21
12 -4 19 -9 17 -12 -3 -2 -15 0 -26 6 -16 9 -28 8 -53 -5 -42 -22 -138 -45
-138 -33 0 5 -8 9 -17 9 -9 0 -13 3 -10 7 8 7 -11 33 -25 33 -5 0 -6 -4 -3
-10 3 -5 2 -10 -4 -10 -5 0 -13 5 -16 10 -5 8 -11 7 -21 -1 -11 -9 -14 -8 -14
2 1 15 30 58 30 44 0 -5 5 -4 12 3 17 17 25 15 32 -10 6 -22 7 -22 21 -4 12
16 17 17 30 6 12 -10 15 -10 15 1 0 12 2 12 9 0 17 -26 91 27 91 66 0 12 4 23
10 23 5 0 6 -8 3 -17 -6 -17 -6 -17 10 -1 20 19 22 34 6 44 -6 3 -24 -10 -41
-30 -46 -56 -58 -59 -117 -31 -54 27 -62 34 -34 31 10 0 22 9 28 22 6 13 19
22 31 22 18 0 21 4 17 23 -3 12 -10 28 -16 35 -6 8 -6 12 1 12 5 0 12 -6 15
-14 7 -18 44 -27 44 -11 0 7 -6 11 -13 8 -6 -2 -15 1 -20 8 -4 8 -3 10 4 5 7
-4 12 -2 12 3 0 6 -4 11 -10 11 -5 0 -10 12 -10 28 0 18 3 23 9 14 11 -19 100
26 101 52 0 12 5 16 14 13 10 -4 13 -1 9 9 -3 7 -1 14 5 14 5 0 13 7 16 16 6
15 4 15 -17 1 -70 -46 -317 -111 -366 -97 -48 13 -71 30 -71 50 0 23 10 26 29
8 10 -11 11 -8 6 15 -7 27 9 40 17 15 4 -10 10 -10 31 -1 20 9 40 10 75 3 26
-5 67 -8 92 -7 40 3 45 6 45 28 0 17 5 23 18 21 9 -2 17 2 17 9 0 8 5 7 17 -2
11 -10 14 -10 9 -1 -4 6 -3 12 3 12 6 0 9 6 7 13 -1 6 -1 9 1 5 3 -5 11 -8 19
-8 9 0 12 4 9 10 -3 6 1 7 9 4 14 -6 21 5 17 29 0 4 4 7 10 7 8 0 9 4 0 13 -6
8 -8 17 -4 20 3 4 0 13 -6 21 -9 11 -9 16 0 22 7 4 9 3 5 -4 -3 -6 3 -16 15
-23 17 -9 19 -13 8 -20 -11 -7 -11 -9 2 -9 9 0 21 11 27 25 8 18 8 25 1 25 -8
0 -7 5 1 15 7 9 11 16 9 18 -52 30 -78 29 -80 -2 0 -10 -2 -11 -6 -4 -3 8 -14
11 -28 7 -12 -3 -26 -1 -30 5 -3 7 -1 10 6 9 7 -2 15 6 17 16 3 14 0 17 -12
13 -22 -9 -47 2 -39 17 4 6 -1 5 -10 -3 -10 -8 -15 -16 -12 -19 8 -8 -58 -77
-70 -74 -7 1 -23 -18 -36 -42 -13 -25 -25 -43 -27 -41 -3 2 -14 -10 -26 -27
-11 -17 -28 -34 -36 -36 -8 -3 -2 9 13 27 34 41 35 58 1 37 -14 -10 -30 -16
-37 -13 -6 2 7 12 28 23 34 16 41 25 48 62 5 25 12 40 19 36 5 -3 8 -18 5 -32
l-5 -26 18 24 c12 15 15 27 8 31 -5 4 -2 9 8 13 9 3 14 9 11 12 -7 7 22 39 34
39 4 0 11 4 16 8 4 5 4 8 -2 6 -14 -3 -45 12 -45 22 0 5 12 4 26 -1 16 -7 23
-7 19 0 -3 5 -1 18 5 29 13 26 5 43 -28 63 -26 16 -28 16 -29 -3 -1 -11 9 -27
23 -36 14 -8 22 -18 20 -21 -3 -3 -13 1 -21 8 -13 11 -18 11 -28 0 -10 -10 -9
-11 3 -5 8 5 11 4 7 0 -12 -14 -36 -14 -31 0 3 8 -3 12 -18 10 -13 -1 -24 -4
-25 -5 -3 -3 -18 -7 -32 -9 -5 0 -13 -11 -16 -22 -5 -16 -9 -18 -15 -9 -17 28
-56 18 -51 -12 0 -5 -4 -8 -10 -8 -6 0 -8 -7 -5 -16 3 -8 2 -12 -4 -9 -6 4
-11 -10 -12 -32 -1 -32 -2 -30 -8 17 l-7 55 -2 -55 -3 -55 -13 30 c-8 17 -15
26 -16 20 0 -5 -5 1 -9 15 l-8 25 -1 -27 c-1 -16 -5 -28 -9 -28 -4 0 -5 32 -1
71 5 62 10 74 40 105 75 78 232 85 312 14 l33 -29 27 25 c23 21 25 28 16 51
-11 30 -11 30 24 37 18 3 30 -1 36 -11 6 -11 10 -12 15 -4 4 6 2 11 -3 11 -6
0 -11 7 -11 15 0 12 4 14 19 5 11 -5 22 -6 25 -1 8 13 -4 21 -33 22 -15 0 -20
3 -11 6 27 10 49 35 43 50 -3 8 7 28 23 45 24 25 25 29 7 19 -32 -16 -41 -14
-15 5 12 8 22 21 22 29 0 7 6 16 13 18 7 3 5 6 -5 6 -10 1 -18 -6 -18 -14 0
-8 -5 -15 -11 -15 -5 0 -7 5 -4 10 8 13 -2 13 -28 -2 -31 -17 -55 -19 -63 -6
-5 8 -2 9 9 5 11 -4 17 -1 17 8 0 8 8 15 18 15 13 0 14 2 4 9 -10 6 -10 10 3
21 18 15 20 50 2 50 -17 0 -52 -25 -53 -39 -3 -25 -6 -25 -13 -1 l-7 25 -17
-30 c-15 -27 -16 -28 -17 -7 0 29 -18 28 -29 -1 -15 -38 -36 -50 -79 -42 -29
5 -42 2 -52 -9 -10 -13 -10 -16 4 -16 19 0 20 -9 2 -33 -8 -10 -17 -14 -20 -8
-3 5 0 11 6 14 10 3 10 7 -1 20 -7 10 -10 17 -5 18 5 0 0 4 -11 9 -16 7 -17 9
-3 9 9 1 20 6 24 13 5 8 2 9 -10 5 -10 -4 -15 -3 -11 3 3 5 1 19 -5 30 -9 16
-8 18 5 14 8 -3 12 -11 8 -18 -3 -6 -2 -7 2 -3 16 14 14 37 -3 37 -14 0 -15 2
-2 9 8 6 18 7 22 5 5 -3 8 -2 7 3 -4 24 3 43 16 43 9 0 20 11 25 24 5 13 19
33 30 44 12 11 19 26 15 32 -10 16 -40 -13 -72 -70 -24 -44 -29 -46 -67 -46
-36 1 -42 -2 -63 -39 -27 -48 -29 -72 -5 -77 11 -3 8 -6 -12 -10 -26 -5 -28
-4 -22 23 9 46 -3 33 -15 -17 -7 -28 -15 -42 -21 -36 -15 15 -48 2 -48 -20 0
-18 -1 -18 -16 -4 -8 9 -23 16 -32 17 -14 0 -13 2 3 9 11 5 32 11 47 14 20 5
32 17 43 43 15 35 15 39 -1 50 -10 7 -14 16 -9 20 4 5 10 2 12 -4 8 -22 23
-14 23 12 0 35 -53 90 -115 120 -56 26 -68 29 -78 19z m303 -237 c0 -7 -9 -18
-21 -25 -17 -11 -20 -11 -13 0 20 36 34 46 34 25z m-50 -42 c0 -8 -4 -15 -9
-15 -5 0 -11 7 -15 15 -3 9 0 15 9 15 8 0 15 -7 15 -15z m286 -11 c-23 -16
-36 -18 -36 -4 0 6 9 10 20 10 11 0 20 5 20 12 0 6 3 8 7 4 5 -4 -1 -14 -11
-22z m-331 -23 c0 -19 -4 -27 -12 -24 -16 6 -17 25 -1 41 7 7 12 12 13 12 0 0
0 -13 0 -29z m98 -36 c4 -8 3 -16 -1 -19 -4 -3 -9 4 -9 15 -2 23 3 25 10 4z
m-177 -13 c1 -7 0 -8 -3 -2 -2 5 -9 8 -13 5 -5 -3 -12 0 -15 6 -5 7 -1 10 10
7 10 -1 20 -9 21 -16z m449 -52 c3 -5 -3 -10 -15 -10 -12 0 -18 5 -15 10 3 6
10 10 15 10 5 0 12 -4 15 -10z m-55 -15 c5 3 11 1 14 -4 9 -14 -43 -6 -57 9
-10 10 -7 10 11 1 12 -7 27 -9 32 -6z m-163 -195 c2 -21 -21 -28 -32 -10 -4 6
-11 7 -17 4 -7 -4 -8 -2 -4 5 4 6 11 9 15 7 4 -3 13 -1 21 5 8 5 15 9 15 9 1
0 1 -9 2 -20z m-207 -120 c0 -5 -2 -10 -4 -10 -3 0 -8 5 -11 10 -3 6 -1 10 4
10 6 0 11 -4 11 -10z m410 -11 c0 -4 -12 -5 -27 -3 -39 7 -41 13 -4 12 17 -1
31 -5 31 -9z m-406 -25 c5 -14 4 -15 -9 -4 -17 14 -19 20 -6 20 5 0 12 -7 15
-16z m46 0 c0 -9 10 -33 22 -53 18 -28 18 -33 4 -22 -9 8 -24 30 -32 49 -17
41 -17 42 -4 42 6 0 10 -7 10 -16z m44 -132 c3 -5 -1 -9 -9 -9 -8 0 -12 4 -9
9 3 4 7 8 9 8 2 0 6 -4 9 -8z m210 -149 c-10 -15 -19 -32 -19 -38 -1 -14 -24
-7 -53 15 -31 25 -49 15 -25 -13 10 -12 3 -8 -15 8 l-34 30 39 5 c21 3 42 2
48 -2 16 -14 45 -9 57 12 7 10 14 17 16 15 3 -2 -4 -17 -14 -32z m-134 -213
c0 -5 -4 -10 -10 -10 -5 0 -10 5 -10 10 0 6 5 10 10 10 6 0 10 -4 10 -10z
m-85 -40 c-3 -5 -11 -10 -16 -10 -6 0 -7 5 -4 10 3 6 11 10 16 10 6 0 7 -4 4
-10z m65 -20 c9 -16 8 -18 -5 -14 -8 4 -15 12 -15 20 0 20 7 17 20 -6z m460
-55 c25 -38 25 -71 0 -123 -11 -22 -20 -45 -20 -49 0 -5 -10 -9 -21 -10 -19
-2 -19 0 -6 10 17 13 37 58 37 85 0 24 -18 2 -22 -28 -4 -35 -73 -69 -123 -61
-46 7 -87 55 -75 86 8 18 9 17 9 -6 1 -30 25 -55 63 -64 31 -8 98 20 98 41 0
8 5 14 11 14 6 0 9 9 6 20 -3 11 -1 20 4 20 18 0 8 30 -21 63 l-30 35 35 -2
c27 -1 40 -8 55 -31z m170 15 c0 -5 -5 -10 -11 -10 -5 0 -7 5 -4 10 3 6 8 10
11 10 2 0 4 -4 4 -10z m58 -12 c9 -9 12 -9 12 3 0 7 11 -4 25 -25 23 -37 25
-63 4 -51 -5 4 -20 -5 -34 -19 -28 -28 -125 -49 -125 -27 0 6 7 11 15 11 17 0
19 9 5 30 -5 8 -10 10 -10 4 0 -6 -6 -11 -14 -11 -23 0 -2 42 23 45 19 3 20 6
9 20 -12 15 -10 15 14 -1 29 -18 42 -22 34 -9 -2 4 4 8 14 8 14 0 16 -3 8 -13
-7 -9 -7 -13 0 -13 18 0 20 24 4 43 -17 19 -3 24 16 5z m-383 -48 c3 -5 1 -10
-4 -10 -6 0 -11 5 -11 10 0 6 2 10 4 10 3 0 8 -4 11 -10z m75 -71 c0 -6 -4 -7
-10 -4 -5 3 -10 11 -10 16 0 6 5 7 10 4 6 -3 10 -11 10 -16z m173 -14 c-3 -9
-8 -14 -10 -11 -3 3 -2 9 2 15 9 16 15 13 8 -4z m94 -11 c-3 -3 -12 -4 -19 -1
-8 3 -5 6 6 6 11 1 17 -2 13 -5z m-48 -28 c-12 -10 -59 -15 -59 -6 0 5 14 10
32 10 17 0 29 -2 27 -4z m-9 -36 c0 -4 -17 -10 -39 -12 -28 -2 -37 0 -34 9 3
7 8 11 12 9 4 -3 13 -1 21 4 14 9 40 3 40 -10z m-120 -14 c0 -2 -8 -10 -17
-17 -16 -13 -17 -12 -4 4 13 16 21 21 21 13z m-60 -60 c0 -2 -11 -11 -25 -20
-14 -9 -25 -13 -25 -8 0 5 10 14 23 20 27 13 27 13 27 8z m50 -10 c0 -2 -8
-10 -17 -17 -16 -13 -17 -12 -4 4 13 16 21 21 21 13z m-488 -53 c16 -15 23
-15 54 -4 41 15 53 9 33 -15 -16 -20 -221 -118 -267 -128 -27 -7 -30 -5 -25
13 3 12 9 18 14 15 5 -3 6 2 3 10 -3 8 -13 12 -22 9 -14 -4 -14 -3 -3 5 11 8
12 14 4 24 -8 9 -7 16 3 26 14 13 15 12 18 -8 1 -11 11 -14 29 -7 9 3 8 12 -5
36 -20 36 -11 39 26 10 18 -15 32 -18 48 -13 13 5 28 7 33 6 6 -1 2 4 -8 12
-18 14 -17 15 10 19 15 2 30 5 32 6 3 0 13 -7 23 -16z m482 1 c9 -24 2 -26
-12 -4 -7 11 -8 20 -3 20 5 0 12 -7 15 -16z m81 -14 c3 -5 1 -10 -4 -10 -6 0
-11 5 -11 10 0 6 2 10 4 10 3 0 8 -4 11 -10z m-137 -95 c-3 -3 -13 7 -23 22
l-17 28 23 -22 c12 -12 20 -25 17 -28z m74 -39 c-3 -5 3 -6 13 -2 15 5 16 4 6
-8 -7 -8 -20 -12 -29 -10 -14 5 -14 3 2 -10 14 -11 33 -14 74 -10 31 3 60 8
66 11 5 4 7 -1 3 -10 -6 -16 -5 -16 18 -1 21 13 25 14 25 2 0 -8 -5 -19 -11
-25 -8 -8 0 -10 31 -9 22 1 43 -1 46 -5 3 -5 11 -6 19 -2 12 4 15 -3 15 -31 0
-29 -4 -37 -24 -42 -33 -8 -59 1 -89 32 -15 15 -50 32 -84 41 -71 18 -115 44
-138 81 l-16 27 20 -23 c19 -22 41 -23 41 -1 0 6 -5 7 -11 3 -7 -4 -6 2 2 17
12 23 12 23 19 4 4 -11 5 -24 2 -29z m-396 -11 c-3 -8 -2 -15 3 -15 5 0 14 7
21 15 11 14 40 21 40 11 0 -9 -59 -63 -64 -59 -9 9 -127 -58 -120 -69 4 -7 3
-8 -4 -4 -6 4 -23 -1 -36 -10 -32 -20 -86 -25 -79 -7 3 7 8 13 12 13 3 0 12 4
20 9 11 7 10 14 -8 40 -19 26 -20 31 -6 31 9 0 13 -4 10 -10 -3 -5 -2 -10 4
-10 5 0 13 4 16 10 4 6 15 4 29 -5 25 -16 38 -11 29 11 -3 9 2 14 16 14 12 0
21 -6 21 -16 0 -8 -4 -12 -10 -9 -5 3 -10 1 -10 -5 0 -17 99 14 101 31 1 5 3
14 4 19 1 6 3 15 4 20 0 6 4 10 7 10 3 0 4 -7 0 -15z m-437 -72 c-13 -16 -26
-30 -27 -33 -2 -3 -2 4 0 15 1 11 12 25 23 32 30 17 31 15 4 -14z m532 -81
c-22 -42 -59 -72 -90 -72 -11 0 -43 -12 -71 -26 -55 -28 -63 -27 -65 9 -1 12
-5 33 -9 45 -7 20 -5 23 11 20 13 -3 17 -11 15 -32 -2 -19 1 -27 10 -24 7 3
12 16 10 31 -2 19 4 30 24 43 26 18 27 17 46 -9 l19 -27 37 19 c20 10 46 28
56 40 27 30 29 26 7 -17z m48 -92 c-18 -34 -39 -53 -39 -34 0 5 53 74 57 74 2
0 -7 -18 -18 -40z m221 25 c47 -18 27 -18 -30 -1 -25 8 -36 15 -25 15 11 0 36
-7 55 -14z m-372 -70 c-8 -17 -15 -22 -21 -16 -7 7 -6 15 3 26 20 24 31 18 18
-10z m480 -67 c-3 -7 5 -17 16 -23 11 -6 22 -19 24 -29 3 -11 0 -16 -7 -11 -6
3 -9 11 -6 16 4 5 1 9 -4 9 -6 0 -11 -6 -12 -12 0 -10 -2 -10 -6 0 -2 6 -11
12 -19 12 -12 0 -13 4 -3 22 10 18 9 20 -5 15 -8 -3 -17 -3 -20 1 -2 4 7 9 21
10 16 1 23 -3 21 -10z m97 -48 c3 -6 -1 -7 -9 -4 -12 5 -16 0 -16 -17 -1 -21
-2 -22 -11 -6 -5 9 -7 22 -4 27 8 13 32 13 40 0z"/>
<path d="M3306 2399 c3 -5 10 -7 15 -4 8 6 10 2 13 -35 1 -8 8 -14 15 -12 7 1
10 -2 7 -7 -4 -5 -2 -12 4 -16 18 -11 11 26 -11 53 -18 24 -56 42 -43 21z"/>
<path d="M3525 2320 c3 -5 8 -10 11 -10 2 0 4 5 4 10 0 6 -5 10 -11 10 -5 0
-7 -4 -4 -10z"/>
<path d="M3520 2289 c0 -5 5 -7 10 -4 6 3 10 8 10 11 0 2 -4 4 -10 4 -5 0 -10
-5 -10 -11z"/>
<path d="M2776 1994 c-4 -9 -4 -19 -1 -22 2 -3 7 3 11 12 3 9 11 13 17 9 6 -3
7 -1 3 5 -10 17 -23 15 -30 -4z"/>
<path d="M3608 3735 c5 -11 6 -29 1 -40 -22 -56 8 -258 54 -357 24 -54 72
-118 87 -118 11 0 4 40 -9 53 -5 5 -7 16 -4 24 3 8 0 13 -7 11 -7 -2 -15 3
-18 11 -3 10 0 12 12 8 10 -4 16 -1 16 8 0 8 -7 15 -15 15 -8 0 -15 5 -15 10
0 6 4 10 8 10 5 0 8 10 6 23 -1 12 -3 22 -4 22 -1 0 -4 18 -6 40 -3 22 -11 52
-18 67 -10 18 -10 30 -3 37 14 14 -29 123 -66 164 -16 18 -24 23 -19 12z m67
-234 c3 -5 1 -12 -5 -16 -5 -3 -10 1 -10 9 0 18 6 21 15 7z m14 -53 c-9 -16
-14 -19 -17 -9 -2 7 2 17 9 22 20 13 21 11 8 -13z"/>
<path d="M2780 3706 c0 -2 7 -9 15 -16 13 -11 14 -10 9 4 -5 14 -24 23 -24 12z"/>
<path d="M2816 3603 c-6 -14 -5 -15 5 -6 7 7 10 15 7 18 -3 3 -9 -2 -12 -12z"/>
<path d="M2483 3599 c-15 -15 4 -36 38 -41 20 -2 24 1 24 22 0 19 -6 26 -25
28 -14 2 -30 -2 -37 -9z"/>
<path d="M2567 3495 c6 -17 25 -15 31 3 2 7 -5 12 -17 12 -14 0 -19 -5 -14
-15z"/>
<path d="M2098 3478 c-8 -22 3 -38 26 -38 22 0 50 -34 45 -56 -3 -20 1 -35 10
-29 5 3 16 -3 23 -13 7 -11 18 -20 23 -21 6 0 17 -7 25 -14 9 -7 23 -16 31
-19 8 -3 15 -18 17 -34 3 -35 6 -37 32 -29 20 6 22 12 18 61 -3 29 -1 51 4 48
4 -3 8 -11 8 -18 0 -8 11 -12 29 -11 25 1 30 -3 35 -27 5 -27 9 -29 36 -23 25
5 29 4 24 -9 -13 -33 45 -13 75 26 24 30 19 58 -10 58 -11 0 -30 7 -44 16 -13
8 -42 16 -64 17 -23 1 -41 6 -41 11 0 6 -5 5 -12 -2 -17 -17 -28 -15 -28 4 0
12 -3 14 -13 6 -9 -8 -19 -4 -36 14 -13 13 -28 24 -35 24 -6 0 -44 16 -83 35
-80 39 -89 41 -95 23z"/>
<path d="M2531 3467 c-13 -21 -12 -21 5 -5 10 10 16 20 13 22 -3 3 -11 -5 -18
-17z"/>
<path d="M2480 3455 c-6 -8 -10 -19 -8 -26 2 -6 9 0 16 15 13 29 10 33 -8 11z"/>
<path d="M3242 3387 c-9 -11 -4 -13 28 -12 40 1 70 15 32 15 -11 0 -27 2 -35
5 -7 3 -19 0 -25 -8z"/>
<path d="M3297 3284 c-8 -8 1 -24 14 -24 5 0 9 7 9 15 0 15 -12 20 -23 9z"/>
<path d="M3430 3229 c0 -5 5 -7 10 -4 6 3 10 8 10 11 0 2 -4 4 -10 4 -5 0 -10
-5 -10 -11z"/>
<path d="M2960 3221 c0 -6 5 -13 10 -16 6 -3 10 1 10 9 0 9 -4 16 -10 16 -5 0
-10 -4 -10 -9z"/>
<path d="M2916 3199 c-11 -10 -15 -19 -9 -19 5 0 18 9 28 20 23 26 6 25 -19
-1z"/>
<path d="M3584 3198 l-19 -23 23 19 c21 18 27 26 19 26 -2 0 -12 -10 -23 -22z"/>
<path d="M2740 3158 c-11 -18 -20 -37 -20 -42 0 -12 1 -10 28 37 26 45 19 50
-8 5z"/>
<path d="M3297 3143 c-13 -13 -7 -32 8 -27 8 4 15 12 15 20 0 15 -12 19 -23 7z"/>
<path d="M1459 2925 c-10 -22 -19 -53 -19 -70 0 -36 33 -111 63 -143 48 -52
173 -94 271 -91 27 1 15 5 -36 10 -95 11 -151 31 -68 24 30 -2 47 -2 38 1 -9
3 -15 11 -12 18 3 8 -12 24 -38 39 -65 38 -99 79 -105 125 -5 35 -2 42 21 57
18 12 37 16 61 12 52 -8 34 8 -31 29 -38 12 -51 20 -42 26 8 5 -6 7 -36 6 -47
-3 -50 -5 -67 -43z m146 -255 c3 -5 2 -10 -4 -10 -5 0 -13 5 -16 10 -3 6 -2
10 4 10 5 0 13 -4 16 -10z"/>
<path d="M3693 2900 c-24 -46 -42 -69 -51 -65 -7 2 -10 0 -7 -5 3 -6 1 -10 -5
-10 -7 0 -10 -7 -7 -14 4 -10 1 -13 -8 -10 -8 3 -26 -6 -40 -20 -14 -14 -31
-26 -37 -26 -6 0 -20 -8 -31 -17 -15 -13 -18 -14 -12 -3 7 12 6 13 -6 4 -16
-13 -49 -15 -46 -3 2 8 -3 9 -33 9 -17 0 -20 -7 -20 -43 l0 -42 68 5 c74 6 94
15 133 57 32 34 157 253 145 253 -3 0 -22 -32 -43 -70z"/>
<path d="M2075 2911 c-3 -7 2 -11 14 -11 28 0 96 -37 79 -43 -7 -2 3 -12 25
-22 20 -11 38 -25 38 -32 1 -7 3 -16 4 -20 2 -5 6 -18 10 -31 5 -16 14 -22 29
-20 19 3 21 8 17 63 -5 95 -10 101 -78 109 -32 4 -74 9 -94 12 -22 3 -40 1
-44 -5z"/>
<path d="M2344 2899 c-3 -6 6 -21 22 -34 23 -18 34 -21 58 -14 22 7 34 5 47
-7 16 -14 20 -14 38 -2 12 8 18 17 16 20 -3 3 7 3 22 0 24 -5 26 -3 13 9 -33
32 -200 53 -216 28z"/>
<path d="M3327 2903 c-2 -5 3 -30 11 -58 11 -34 17 -44 20 -30 2 11 8 24 13
29 5 5 1 21 -9 38 -16 28 -27 35 -35 21z"/>
<path d="M3825 2850 c-3 -6 1 -7 9 -4 18 7 21 14 7 14 -6 0 -13 -4 -16 -10z"/>
<path d="M3887 2843 c-4 -3 0 -14 9 -24 37 -41 -18 -105 -67 -78 -17 9 -20 8
-17 -3 8 -23 58 -22 83 2 26 24 38 57 24 66 -5 3 -7 9 -4 14 6 10 -20 32 -28
23z"/>
<path d="M2590 2800 c0 -5 5 -10 11 -10 5 0 7 5 4 10 -3 6 -8 10 -11 10 -2 0
-4 -4 -4 -10z"/>
<path d="M3315 2766 c-4 -20 -11 -39 -16 -42 -11 -6 -12 -41 -1 -47 4 -2 1 -2
-5 -1 -19 5 -34 -30 -20 -46 10 -10 9 -12 -4 -7 -17 6 -39 -9 -39 -27 0 -5 3
-6 7 -3 3 4 13 1 22 -5 9 -7 13 -8 9 -4 -5 5 6 18 24 29 31 18 31 20 13 33
-18 14 -18 14 3 14 12 0 22 4 22 9 0 5 7 17 16 25 14 15 14 17 -7 24 -19 7
-20 10 -6 15 20 8 21 26 2 51 -13 17 -14 15 -20 -18z"/>
<path d="M3860 2785 c0 -8 2 -15 4 -15 2 0 6 7 10 15 3 8 1 15 -4 15 -6 0 -10
-7 -10 -15z"/>
<path d="M2558 2783 c7 -3 16 -2 19 1 4 3 -2 6 -13 5 -11 0 -14 -3 -6 -6z"/>
<path d="M2565 2660 c3 -5 11 -10 16 -10 6 0 7 5 4 10 -3 6 -11 10 -16 10 -6
0 -7 -4 -4 -10z"/>
<path d="M3370 2619 c-11 -19 -10 -20 9 -9 12 6 26 8 31 5 5 -3 11 -1 14 4 4
5 25 8 49 6 29 -3 37 -1 27 5 -8 5 -38 10 -67 10 -43 0 -54 -4 -63 -21z"/>
<path d="M2578 2624 c-4 -4 -5 -11 -2 -15 7 -12 51 -11 59 1 4 7 -3 9 -19 6
-13 -2 -26 0 -28 5 -2 6 -7 7 -10 3z"/>
<path d="M2647 2600 c-4 -17 -11 -19 -31 -14 -20 5 -26 2 -26 -11 0 -12 5 -15
23 -9 57 17 66 24 61 39 -8 21 -21 19 -27 -5z"/>
<path d="M3460 2609 c-12 -8 -11 -9 5 -7 13 2 19 -2 17 -12 -2 -8 0 -12 4 -7
4 4 17 -1 28 -10 21 -18 21 -18 2 5 -15 17 -16 22 -5 23 8 0 6 4 -6 9 -26 11
-28 11 -45 -1z"/>
<path d="M3398 2583 c-10 -3 -18 -12 -18 -21 0 -17 39 -75 40 -59 0 4 18 -4
39 -17 42 -27 48 -18 18 27 -26 39 -21 44 13 12 30 -28 30 -29 30 -6 0 21 2
22 17 10 12 -10 15 -10 9 -1 -17 28 -113 64 -148 55z m58 -70 c-7 -7 -26 7
-26 19 0 6 6 6 15 -2 9 -7 13 -15 11 -17z"/>
<path d="M3420 2486 c0 -2 7 -19 16 -37 11 -25 14 -27 10 -9 -3 14 -6 31 -6
38 0 6 -4 12 -10 12 -5 0 -10 -2 -10 -4z"/>
<path d="M3581 2474 c0 -11 3 -14 6 -6 3 7 2 16 -1 19 -3 4 -6 -2 -5 -13z"/>
<path d="M3450 2471 c0 -5 5 -13 10 -16 6 -3 10 -2 10 4 0 5 -4 13 -10 16 -5
3 -10 2 -10 -4z"/>
<path d="M3530 2464 c0 -8 5 -12 10 -9 6 4 8 11 5 16 -9 14 -15 11 -15 -7z"/>
<path d="M2640 2144 c0 -1 6 -7 14 -13 10 -9 15 -8 19 3 4 10 0 14 -14 13 -10
-1 -19 -2 -19 -3z"/>
<path d="M2026 1689 c4 -7 0 -9 -14 -5 -52 17 -103 -86 -68 -139 20 -30 45
-32 77 -6 l24 19 -28 13 c-20 9 -24 15 -15 21 9 5 8 8 -5 8 -10 0 -15 5 -12
10 4 7 12 7 25 0 30 -16 48 -12 67 16 17 26 16 27 -11 50 -28 25 -52 32 -40
13z"/>
<path d="M1676 1476 c7 -19 27 -26 44 -16 10 6 8 11 -8 19 -28 15 -42 14 -36
-3z"/>
<path d="M1867 1383 c-11 -10 -8 -51 4 -58 5 -4 21 -4 35 -1 17 5 24 13 24 31
0 13 -4 27 -10 30 -5 3 -7 0 -4 -8 3 -10 -4 -16 -21 -19 -22 -5 -26 -2 -22 13
5 20 4 23 -6 12z"/>
<path d="M2562 1240 c42 -23 87 -74 106 -122 l12 -33 -6 30 c-9 51 -101 146
-138 145 -6 -1 6 -10 26 -20z"/>
<path d="M3004 1215 c26 -24 36 -40 32 -51 -5 -13 -3 -14 6 -6 7 5 29 14 48
20 l35 9 -40 11 c-22 7 -55 21 -73 32 -48 30 -51 24 -8 -15z"/>
<path d="M2388 1228 c-25 -8 -40 -30 -20 -27 19 3 33 -2 27 -11 -10 -17 4 -11
27 10 15 13 25 17 33 10 13 -11 25 -3 25 17 0 15 -51 16 -92 1z m37 -8 c3 -5
1 -10 -4 -10 -6 0 -11 5 -11 10 0 6 2 10 4 10 3 0 8 -4 11 -10z"/>
<path d="M2488 1206 c-4 -32 -3 -33 16 -20 11 8 25 14 31 14 5 0 2 -5 -7 -11
-22 -13 -23 -45 -2 -53 23 -9 54 -7 54 3 0 5 8 12 17 15 10 4 14 4 11 0 -4 -3
2 -15 13 -27 30 -32 25 -51 -7 -30 -27 17 -27 17 -15 -5 6 -12 8 -22 4 -23 -4
0 5 -5 21 -10 17 -4 32 -6 34 -4 9 8 -30 96 -55 126 -15 17 -32 28 -40 25 -8
-3 -12 -2 -9 3 5 7 -42 31 -59 31 -2 0 -5 -15 -7 -34z"/>
<path d="M3503 1230 c35 -119 54 -159 87 -192 43 -43 95 -52 123 -20 15 16 15
19 -2 29 -11 7 -27 32 -36 57 -17 44 -18 45 -71 52 -50 6 -56 10 -80 48 -14
22 -24 34 -21 26z"/>
<path d="M1774 1216 c-11 -29 0 -51 26 -51 21 0 25 5 25 30 0 24 -5 31 -23 33
-13 2 -24 -3 -28 -12z m46 -23 c0 -19 -13 -9 -16 12 -1 8 2 13 7 9 5 -3 9 -12
9 -21z"/>
<path d="M2229 1163 c-13 -16 -12 -17 4 -4 16 13 21 21 13 21 -2 0 -10 -8 -17
-17z"/>
<path d="M2255 1150 c-3 -5 -1 -10 4 -10 6 0 11 5 11 10 0 6 -2 10 -4 10 -3 0
-8 -4 -11 -10z"/>
<path d="M2199 1123 c-13 -16 -12 -17 4 -4 16 13 21 21 13 21 -2 0 -10 -8 -17
-17z"/>
<path d="M2683 1045 c0 -22 2 -30 4 -17 2 12 2 30 0 40 -3 9 -5 -1 -4 -23z"/>
<path d="M3026 1046 c9 -21 72 -55 93 -49 33 9 25 16 -38 39 -32 11 -57 16
-55 10z"/>
<path d="M2652 1010 c0 -14 2 -19 5 -12 2 6 2 18 0 25 -3 6 -5 1 -5 -13z"/>
<path d="M2153 919 c2 -104 3 -108 45 -190 95 -187 200 -286 329 -312 66 -13
273 60 357 126 61 47 106 90 106 99 0 6 18 33 40 60 22 28 40 54 40 58 0 4
-12 11 -26 14 -15 4 -41 17 -58 30 -49 36 -55 38 -49 16 3 -12 0 -20 -6 -20
-7 0 0 -11 16 -24 24 -20 25 -26 14 -40 -19 -22 -38 -20 -52 6 -6 12 -20 31
-30 42 -17 17 -19 18 -19 3 0 -9 5 -17 11 -17 7 0 8 -11 3 -32 -4 -18 -8 -45
-8 -61 -1 -24 -2 -26 -13 -10 -8 10 -13 12 -13 4 0 -21 -15 -4 -40 44 -26 50
-38 53 -21 4 16 -47 14 -80 -4 -73 -10 4 -15 0 -15 -11 0 -14 -4 -13 -19 6
l-19 24 -11 -28 c-6 -16 -15 -25 -21 -22 -5 3 -10 0 -10 -7 0 -7 -11 0 -25 16
l-25 29 0 -33 c0 -24 -4 -31 -15 -26 -8 3 -15 1 -15 -4 0 -21 -20 -8 -37 23
-16 30 -18 30 -21 10 -4 -25 -22 -32 -22 -8 0 12 -5 12 -24 4 -19 -9 -29 -8
-47 5 -13 9 -20 16 -16 16 10 0 -18 54 -39 75 -20 19 -12 31 13 20 20 -9 46
-7 53 5 3 4 28 19 55 33 28 15 64 40 82 56 34 32 84 126 82 157 0 13 -3 10 -9
-9 -16 -54 -71 -125 -123 -160 -72 -48 -116 -60 -202 -55 -127 8 -172 53 -185
186 -8 77 -8 77 -7 -29z m834 -209 c2 -23 -12 -27 -20 -6 -3 8 -1 17 6 20 7 2
12 5 12 5 1 1 1 -8 2 -19z m-570 -62 c-3 -8 -6 -5 -6 6 -1 11 2 17 5 13 3 -3
4 -12 1 -19z"/>
<path d="M1661 964 c0 -11 3 -14 6 -6 3 7 2 16 -1 19 -3 4 -6 -2 -5 -13z"/>
<path d="M3100 976 c0 -2 7 -7 16 -10 8 -3 12 -2 9 4 -6 10 -25 14 -25 6z"/>
<path d="M3145 969 c-4 -6 -4 -13 -1 -16 8 -8 36 5 36 17 0 13 -27 13 -35 -1z"/>
<path d="M2972 938 c7 -13 11 -26 10 -30 -1 -5 2 -8 6 -8 13 0 52 -40 52 -53
0 -7 -3 -8 -8 -2 -4 6 -16 17 -27 25 -15 11 -14 7 4 -13 14 -15 32 -27 42 -27
10 0 21 -4 24 -10 11 -17 24 -11 40 20 22 42 19 47 -24 55 -22 4 -60 20 -86
36 -43 27 -45 28 -33 7z"/>
<path d="M1670 916 c0 -70 94 -193 167 -217 27 -9 45 -9 74 0 52 16 49 27 -5
23 -83 -7 -168 60 -211 164 -21 49 -25 54 -25 30z"/>
<path d="M2925 758 c1 -13 6 -21 11 -19 10 3 7 21 -5 34 -4 4 -7 -3 -6 -15z"/>
</g>
</svg>
